<mxfile host="app.diagrams.net" modified="2024-05-08T20:04:29.037Z" agent="Mozilla/5.0 (Windows NT 10.0; Win64; x64) AppleWebKit/537.36 (KHTML, like Gecko) Chrome/124.0.0.0 Safari/537.36" version="24.3.1" etag="0d4JK9lVrqoBFaCiyEGu" type="device">
  <diagram id="JUzksbQDSs-LjVpE02Q1" name="PÃ¡gina-1">
    <mxGraphModel dx="1120" dy="529" grid="1" gridSize="10" guides="1" tooltips="1" connect="1" arrows="1" fold="1" page="1" pageScale="1" pageWidth="827" pageHeight="1169" math="0" shadow="0">
      <root>
        <mxCell id="0" />
        <mxCell id="1" parent="0" />
        <mxCell id="HNbwUzyQ71xWSma6WTr5-1" value="Consulta" style="whiteSpace=wrap;html=1;align=center;" vertex="1" parent="1">
          <mxGeometry x="320" y="390" width="100" height="40" as="geometry" />
        </mxCell>
        <mxCell id="HNbwUzyQ71xWSma6WTr5-46" style="edgeStyle=orthogonalEdgeStyle;rounded=0;orthogonalLoop=1;jettySize=auto;html=1;entryX=1;entryY=0.5;entryDx=0;entryDy=0;" edge="1" parent="1" source="HNbwUzyQ71xWSma6WTr5-2" target="HNbwUzyQ71xWSma6WTr5-8">
          <mxGeometry relative="1" as="geometry">
            <Array as="points">
              <mxPoint x="680" y="310" />
            </Array>
          </mxGeometry>
        </mxCell>
        <mxCell id="HNbwUzyQ71xWSma6WTr5-2" value="Paciente" style="whiteSpace=wrap;html=1;align=center;" vertex="1" parent="1">
          <mxGeometry x="630" y="190" width="100" height="40" as="geometry" />
        </mxCell>
        <mxCell id="HNbwUzyQ71xWSma6WTr5-18" style="edgeStyle=orthogonalEdgeStyle;rounded=0;orthogonalLoop=1;jettySize=auto;html=1;entryX=1;entryY=0.5;entryDx=0;entryDy=0;" edge="1" parent="1" source="HNbwUzyQ71xWSma6WTr5-3" target="HNbwUzyQ71xWSma6WTr5-7">
          <mxGeometry relative="1" as="geometry" />
        </mxCell>
        <mxCell id="HNbwUzyQ71xWSma6WTr5-19" style="edgeStyle=orthogonalEdgeStyle;rounded=0;orthogonalLoop=1;jettySize=auto;html=1;entryX=0;entryY=0.5;entryDx=0;entryDy=0;" edge="1" parent="1" source="HNbwUzyQ71xWSma6WTr5-3" target="HNbwUzyQ71xWSma6WTr5-9">
          <mxGeometry relative="1" as="geometry" />
        </mxCell>
        <mxCell id="HNbwUzyQ71xWSma6WTr5-21" style="edgeStyle=orthogonalEdgeStyle;rounded=0;orthogonalLoop=1;jettySize=auto;html=1;" edge="1" parent="1" source="HNbwUzyQ71xWSma6WTr5-3" target="HNbwUzyQ71xWSma6WTr5-8">
          <mxGeometry relative="1" as="geometry" />
        </mxCell>
        <mxCell id="HNbwUzyQ71xWSma6WTr5-3" value="atendimento" style="whiteSpace=wrap;html=1;align=center;" vertex="1" parent="1">
          <mxGeometry x="314" y="190" width="100" height="40" as="geometry" />
        </mxCell>
        <mxCell id="HNbwUzyQ71xWSma6WTr5-16" style="edgeStyle=orthogonalEdgeStyle;rounded=0;orthogonalLoop=1;jettySize=auto;html=1;exitX=1;exitY=0.5;exitDx=0;exitDy=0;" edge="1" parent="1" source="HNbwUzyQ71xWSma6WTr5-4" target="HNbwUzyQ71xWSma6WTr5-7">
          <mxGeometry relative="1" as="geometry" />
        </mxCell>
        <mxCell id="HNbwUzyQ71xWSma6WTr5-4" value="Clinica" style="whiteSpace=wrap;html=1;align=center;" vertex="1" parent="1">
          <mxGeometry x="20" y="190" width="100" height="40" as="geometry" />
        </mxCell>
        <mxCell id="HNbwUzyQ71xWSma6WTr5-23" style="edgeStyle=orthogonalEdgeStyle;rounded=0;orthogonalLoop=1;jettySize=auto;html=1;entryX=0;entryY=0.5;entryDx=0;entryDy=0;" edge="1" parent="1" source="HNbwUzyQ71xWSma6WTr5-6" target="HNbwUzyQ71xWSma6WTr5-10">
          <mxGeometry relative="1" as="geometry" />
        </mxCell>
        <mxCell id="HNbwUzyQ71xWSma6WTr5-6" value="Medico" style="whiteSpace=wrap;html=1;align=center;" vertex="1" parent="1">
          <mxGeometry x="20" y="390" width="100" height="40" as="geometry" />
        </mxCell>
        <mxCell id="HNbwUzyQ71xWSma6WTr5-7" value="Relationship" style="shape=rhombus;perimeter=rhombusPerimeter;whiteSpace=wrap;html=1;align=center;" vertex="1" parent="1">
          <mxGeometry x="160" y="180" width="120" height="60" as="geometry" />
        </mxCell>
        <mxCell id="HNbwUzyQ71xWSma6WTr5-22" style="edgeStyle=orthogonalEdgeStyle;rounded=0;orthogonalLoop=1;jettySize=auto;html=1;entryX=0.5;entryY=0;entryDx=0;entryDy=0;" edge="1" parent="1" source="HNbwUzyQ71xWSma6WTr5-8" target="HNbwUzyQ71xWSma6WTr5-1">
          <mxGeometry relative="1" as="geometry" />
        </mxCell>
        <mxCell id="HNbwUzyQ71xWSma6WTr5-8" value="agenda" style="shape=rhombus;perimeter=rhombusPerimeter;whiteSpace=wrap;html=1;align=center;" vertex="1" parent="1">
          <mxGeometry x="310" y="280" width="120" height="60" as="geometry" />
        </mxCell>
        <mxCell id="HNbwUzyQ71xWSma6WTr5-20" style="edgeStyle=orthogonalEdgeStyle;rounded=0;orthogonalLoop=1;jettySize=auto;html=1;exitX=1;exitY=0.5;exitDx=0;exitDy=0;entryX=0;entryY=0.5;entryDx=0;entryDy=0;" edge="1" parent="1" source="HNbwUzyQ71xWSma6WTr5-9" target="HNbwUzyQ71xWSma6WTr5-2">
          <mxGeometry relative="1" as="geometry" />
        </mxCell>
        <mxCell id="HNbwUzyQ71xWSma6WTr5-9" value="Relationship" style="shape=rhombus;perimeter=rhombusPerimeter;whiteSpace=wrap;html=1;align=center;" vertex="1" parent="1">
          <mxGeometry x="460" y="180" width="120" height="60" as="geometry" />
        </mxCell>
        <mxCell id="HNbwUzyQ71xWSma6WTr5-24" style="edgeStyle=orthogonalEdgeStyle;rounded=0;orthogonalLoop=1;jettySize=auto;html=1;entryX=0;entryY=0.5;entryDx=0;entryDy=0;" edge="1" parent="1" source="HNbwUzyQ71xWSma6WTr5-10" target="HNbwUzyQ71xWSma6WTr5-1">
          <mxGeometry relative="1" as="geometry" />
        </mxCell>
        <mxCell id="HNbwUzyQ71xWSma6WTr5-10" value="realiza" style="shape=rhombus;perimeter=rhombusPerimeter;whiteSpace=wrap;html=1;align=center;" vertex="1" parent="1">
          <mxGeometry x="160" y="380" width="120" height="60" as="geometry" />
        </mxCell>
        <mxCell id="HNbwUzyQ71xWSma6WTr5-12" value="nome" style="ellipse;whiteSpace=wrap;html=1;align=center;" vertex="1" parent="1">
          <mxGeometry y="100" width="60" height="40" as="geometry" />
        </mxCell>
        <mxCell id="HNbwUzyQ71xWSma6WTr5-14" style="edgeStyle=orthogonalEdgeStyle;rounded=0;orthogonalLoop=1;jettySize=auto;html=1;" edge="1" parent="1" source="HNbwUzyQ71xWSma6WTr5-13" target="HNbwUzyQ71xWSma6WTr5-4">
          <mxGeometry relative="1" as="geometry" />
        </mxCell>
        <mxCell id="HNbwUzyQ71xWSma6WTr5-13" value="&lt;u&gt;CNPJ&lt;/u&gt;" style="ellipse;whiteSpace=wrap;html=1;align=center;" vertex="1" parent="1">
          <mxGeometry x="60" y="100" width="60" height="40" as="geometry" />
        </mxCell>
        <mxCell id="HNbwUzyQ71xWSma6WTr5-15" style="edgeStyle=orthogonalEdgeStyle;rounded=0;orthogonalLoop=1;jettySize=auto;html=1;entryX=0.32;entryY=-0.075;entryDx=0;entryDy=0;entryPerimeter=0;" edge="1" parent="1" source="HNbwUzyQ71xWSma6WTr5-12" target="HNbwUzyQ71xWSma6WTr5-4">
          <mxGeometry relative="1" as="geometry" />
        </mxCell>
        <mxCell id="HNbwUzyQ71xWSma6WTr5-41" style="edgeStyle=orthogonalEdgeStyle;rounded=0;orthogonalLoop=1;jettySize=auto;html=1;entryX=0;entryY=0;entryDx=0;entryDy=0;" edge="1" parent="1" source="HNbwUzyQ71xWSma6WTr5-25" target="HNbwUzyQ71xWSma6WTr5-2">
          <mxGeometry relative="1" as="geometry" />
        </mxCell>
        <mxCell id="HNbwUzyQ71xWSma6WTr5-25" value="&lt;u&gt;Cpdigo&lt;/u&gt;" style="ellipse;whiteSpace=wrap;html=1;align=center;" vertex="1" parent="1">
          <mxGeometry x="600" y="110" width="60" height="40" as="geometry" />
        </mxCell>
        <mxCell id="HNbwUzyQ71xWSma6WTr5-45" style="edgeStyle=orthogonalEdgeStyle;rounded=0;orthogonalLoop=1;jettySize=auto;html=1;" edge="1" parent="1" source="HNbwUzyQ71xWSma6WTr5-26" target="HNbwUzyQ71xWSma6WTr5-3">
          <mxGeometry relative="1" as="geometry" />
        </mxCell>
        <mxCell id="HNbwUzyQ71xWSma6WTr5-26" value="Attribute" style="ellipse;whiteSpace=wrap;html=1;align=center;" vertex="1" parent="1">
          <mxGeometry x="360" y="110" width="60" height="40" as="geometry" />
        </mxCell>
        <mxCell id="HNbwUzyQ71xWSma6WTr5-27" value="&lt;u&gt;codigo&lt;/u&gt;" style="ellipse;whiteSpace=wrap;html=1;align=center;" vertex="1" parent="1">
          <mxGeometry x="300" y="110" width="60" height="40" as="geometry" />
        </mxCell>
        <mxCell id="HNbwUzyQ71xWSma6WTr5-43" style="edgeStyle=orthogonalEdgeStyle;rounded=0;orthogonalLoop=1;jettySize=auto;html=1;entryX=0.75;entryY=0;entryDx=0;entryDy=0;" edge="1" parent="1" source="HNbwUzyQ71xWSma6WTr5-28" target="HNbwUzyQ71xWSma6WTr5-2">
          <mxGeometry relative="1" as="geometry" />
        </mxCell>
        <mxCell id="HNbwUzyQ71xWSma6WTr5-28" value="Telefone" style="ellipse;whiteSpace=wrap;html=1;align=center;" vertex="1" parent="1">
          <mxGeometry x="720" y="110" width="60" height="40" as="geometry" />
        </mxCell>
        <mxCell id="HNbwUzyQ71xWSma6WTr5-42" style="edgeStyle=orthogonalEdgeStyle;rounded=0;orthogonalLoop=1;jettySize=auto;html=1;" edge="1" parent="1" source="HNbwUzyQ71xWSma6WTr5-29" target="HNbwUzyQ71xWSma6WTr5-2">
          <mxGeometry relative="1" as="geometry" />
        </mxCell>
        <mxCell id="HNbwUzyQ71xWSma6WTr5-29" value="Nome" style="ellipse;whiteSpace=wrap;html=1;align=center;" vertex="1" parent="1">
          <mxGeometry x="660" y="110" width="60" height="40" as="geometry" />
        </mxCell>
        <mxCell id="HNbwUzyQ71xWSma6WTr5-40" style="edgeStyle=orthogonalEdgeStyle;rounded=0;orthogonalLoop=1;jettySize=auto;html=1;" edge="1" parent="1" source="HNbwUzyQ71xWSma6WTr5-30" target="HNbwUzyQ71xWSma6WTr5-1">
          <mxGeometry relative="1" as="geometry" />
        </mxCell>
        <mxCell id="HNbwUzyQ71xWSma6WTr5-30" value="&lt;u&gt;Codigo&lt;/u&gt;" style="ellipse;whiteSpace=wrap;html=1;align=center;" vertex="1" parent="1">
          <mxGeometry x="410" y="480" width="60" height="40" as="geometry" />
        </mxCell>
        <mxCell id="HNbwUzyQ71xWSma6WTr5-31" value="data" style="ellipse;whiteSpace=wrap;html=1;align=center;" vertex="1" parent="1">
          <mxGeometry x="350" y="480" width="60" height="40" as="geometry" />
        </mxCell>
        <mxCell id="HNbwUzyQ71xWSma6WTr5-32" value="hora" style="ellipse;whiteSpace=wrap;html=1;align=center;" vertex="1" parent="1">
          <mxGeometry x="290" y="480" width="60" height="40" as="geometry" />
        </mxCell>
        <mxCell id="HNbwUzyQ71xWSma6WTr5-35" style="edgeStyle=orthogonalEdgeStyle;rounded=0;orthogonalLoop=1;jettySize=auto;html=1;" edge="1" parent="1" source="HNbwUzyQ71xWSma6WTr5-33" target="HNbwUzyQ71xWSma6WTr5-6">
          <mxGeometry relative="1" as="geometry" />
        </mxCell>
        <mxCell id="HNbwUzyQ71xWSma6WTr5-33" value="&lt;u&gt;CPF&lt;/u&gt;" style="ellipse;whiteSpace=wrap;html=1;align=center;" vertex="1" parent="1">
          <mxGeometry x="60" y="310" width="60" height="40" as="geometry" />
        </mxCell>
        <mxCell id="HNbwUzyQ71xWSma6WTr5-36" style="edgeStyle=orthogonalEdgeStyle;rounded=0;orthogonalLoop=1;jettySize=auto;html=1;" edge="1" parent="1" source="HNbwUzyQ71xWSma6WTr5-34" target="HNbwUzyQ71xWSma6WTr5-6">
          <mxGeometry relative="1" as="geometry" />
        </mxCell>
        <mxCell id="HNbwUzyQ71xWSma6WTr5-34" value="nome" style="ellipse;whiteSpace=wrap;html=1;align=center;" vertex="1" parent="1">
          <mxGeometry y="310" width="60" height="40" as="geometry" />
        </mxCell>
        <mxCell id="HNbwUzyQ71xWSma6WTr5-37" style="edgeStyle=orthogonalEdgeStyle;rounded=0;orthogonalLoop=1;jettySize=auto;html=1;entryX=0.34;entryY=0.95;entryDx=0;entryDy=0;entryPerimeter=0;" edge="1" parent="1" source="HNbwUzyQ71xWSma6WTr5-32" target="HNbwUzyQ71xWSma6WTr5-1">
          <mxGeometry relative="1" as="geometry" />
        </mxCell>
        <mxCell id="HNbwUzyQ71xWSma6WTr5-39" style="edgeStyle=orthogonalEdgeStyle;rounded=0;orthogonalLoop=1;jettySize=auto;html=1;entryX=0.43;entryY=1.05;entryDx=0;entryDy=0;entryPerimeter=0;" edge="1" parent="1" source="HNbwUzyQ71xWSma6WTr5-31" target="HNbwUzyQ71xWSma6WTr5-1">
          <mxGeometry relative="1" as="geometry" />
        </mxCell>
        <mxCell id="HNbwUzyQ71xWSma6WTr5-44" style="edgeStyle=orthogonalEdgeStyle;rounded=0;orthogonalLoop=1;jettySize=auto;html=1;entryX=0.17;entryY=-0.025;entryDx=0;entryDy=0;entryPerimeter=0;" edge="1" parent="1" source="HNbwUzyQ71xWSma6WTr5-27" target="HNbwUzyQ71xWSma6WTr5-3">
          <mxGeometry relative="1" as="geometry" />
        </mxCell>
      </root>
    </mxGraphModel>
  </diagram>
</mxfile>
